<svg width="14" height="15" viewBox="0 0 14 15" fill="none" xmlns="http://www.w3.org/2000/svg">
<path d="M10.6885 2.66493C10.2406 2.66493 9.87494 3.03582 9.87494 3.49016C9.87494 3.94451 10.2406 4.3154 10.6885 4.3154C11.1364 4.3154 11.5021 3.94451 11.5021 3.49016C11.5021 3.03582 11.1364 2.66493 10.6885 2.66493Z" fill="white"/>
<path d="M7.05034 3.73123C5.1581 3.73123 3.62238 5.28897 3.62238 7.20833C3.62238 9.12769 5.1581 10.6854 7.05034 10.6854C8.94258 10.6854 10.4783 9.12769 10.4783 7.20833C10.4874 5.28897 8.94258 3.73123 7.05034 3.73123ZM7.05034 9.44295C5.83456 9.44295 4.85644 8.44154 4.85644 7.2176C4.85644 5.98439 5.8437 4.99226 7.05034 4.99226C8.25699 4.99226 9.24424 5.99366 9.24424 7.2176C9.25338 8.44154 8.26613 9.44295 7.05034 9.44295Z" fill="white"/>
<path d="M9.77429 14.2831H4.21641C1.91282 14.2831 0.0297241 12.3823 0.0297241 10.0364V4.38955C0.0297241 2.05294 1.90368 0.142853 4.21641 0.142853H9.78343C12.087 0.142853 13.9701 2.04367 13.9701 4.38955V10.0364C13.961 12.373 12.087 14.2831 9.77429 14.2831ZM4.21641 1.47806C2.63498 1.47806 1.34606 2.78545 1.34606 4.38955V10.0364C1.34606 11.6405 2.63498 12.9479 4.21641 12.9479H9.78343C11.3649 12.9479 12.6538 11.6405 12.6538 10.0364V4.38955C12.6538 2.78545 11.3649 1.47806 9.78343 1.47806H4.21641Z" fill="white"/>
</svg>
