<svg width="21" height="21" viewBox="0 0 21 21" fill="none" xmlns="http://www.w3.org/2000/svg">
<path fill-rule="evenodd" clip-rule="evenodd" d="M15.2609 1.80739H6.59697C4.44485 1.80739 2.70021 3.55203 2.70021 5.70415V14.3681C2.70021 16.5202 4.44485 18.2649 6.59697 18.2649H15.2609C17.4131 18.2649 19.1577 16.5202 19.1577 14.3681V5.70415C19.1577 3.55203 17.4131 1.80739 15.2609 1.80739ZM6.59697 0.0361328C3.46661 0.0361328 0.928955 2.57379 0.928955 5.70415V14.3681C0.928955 17.4985 3.46661 20.0361 6.59697 20.0361H15.2609C18.3913 20.0361 20.929 17.4985 20.929 14.3681V5.70415C20.929 2.57379 18.3913 0.0361328 15.2609 0.0361328H6.59697Z" fill="white"/>
<path d="M8.31223 6.42409C8.31223 6.97834 7.86675 7.42744 7.31692 7.42744C6.76708 7.42744 6.3216 6.97834 6.3216 6.42409C6.3216 5.87025 6.76708 5.42075 7.31692 5.42075C7.86675 5.42075 8.31223 5.87025 8.31223 6.42409ZM8.32026 8.23011H6.31357V14.6515H8.32026V8.23011ZM11.5237 8.23011H9.52989V14.6515H11.5241V11.2807C11.5241 9.40643 13.9438 9.25312 13.9438 11.2807V14.6515H15.9457V10.5856C15.9457 7.42302 12.3649 7.53821 11.5237 9.095V8.23011Z" fill="white"/>
</svg>
