<svg width="15" height="12" viewBox="0 0 15 12" fill="none" xmlns="http://www.w3.org/2000/svg">
<path d="M14.3069 1.66469C13.8714 1.86357 13.3876 1.99284 12.9231 2.07239C13.1456 2.03261 13.4747 1.61497 13.6101 1.44593C13.8134 1.18739 13.9779 0.899023 14.0747 0.580822C14.0843 0.560935 14.094 0.52116 14.0747 0.511216C14.0456 0.501272 14.0263 0.501267 13.9972 0.521154C13.4747 0.809524 12.9327 1.01834 12.3521 1.1675C12.3037 1.17744 12.265 1.1675 12.236 1.13767C12.1876 1.07801 12.1392 1.02829 12.0908 0.988513C11.8489 0.779694 11.5876 0.610649 11.2973 0.491324C10.9102 0.332224 10.494 0.26262 10.0779 0.292452C9.67146 0.322283 9.27469 0.431661 8.91663 0.630536C8.55857 0.819468 8.23922 1.08795 7.97793 1.4161C7.71664 1.75418 7.52309 2.14199 7.41664 2.56958C7.31987 2.97727 7.32954 3.37502 7.38761 3.78272C7.39728 3.85232 7.38761 3.86227 7.32954 3.85232C5.07472 3.50429 3.19731 2.67896 1.67797 0.899023C1.61023 0.819472 1.57152 0.819467 1.52313 0.908961C0.855394 1.93317 1.18442 3.58384 2.007 4.38928C2.11345 4.49866 2.22958 4.60804 2.35538 4.70748C2.307 4.71743 1.75539 4.65776 1.26184 4.38928C1.1941 4.34951 1.16507 4.3694 1.15539 4.44895C1.14571 4.55833 1.15539 4.65777 1.17475 4.7771C1.30055 5.81125 2.007 6.77579 2.96506 7.15366C3.08119 7.20338 3.20699 7.24315 3.32312 7.26304C3.10054 7.31276 2.87796 7.34259 2.24893 7.29287C2.17151 7.27298 2.14248 7.31276 2.17151 7.39231C2.6457 8.69494 3.66183 9.09269 4.42634 9.31145C4.53279 9.33134 4.62956 9.33134 4.73601 9.35123C4.72634 9.36117 4.72634 9.36117 4.71666 9.37111C4.46505 9.76887 3.58441 10.0572 3.17796 10.2064C2.4328 10.4749 1.62958 10.5942 0.845717 10.5147C0.719911 10.4948 0.690879 10.4948 0.661847 10.5147C0.623138 10.5345 0.661847 10.5644 0.700556 10.6041C0.855394 10.7135 1.01991 10.803 1.18442 10.9025C1.67797 11.1709 2.20055 11.3897 2.74248 11.5389C5.53923 12.3344 8.69405 11.7477 10.8037 9.59982C12.4585 7.90938 13.0295 5.59248 13.0295 3.25569C13.0295 3.1662 13.136 3.11648 13.194 3.06677C13.6198 2.73862 13.9682 2.34087 14.2876 1.8934C14.3553 1.79396 14.3553 1.70446 14.3553 1.66469C14.3553 1.65475 14.3553 1.65474 14.3553 1.65474C14.365 1.63486 14.365 1.6448 14.3069 1.66469Z" fill="white"/>
</svg>
