<svg width="15" height="15" viewBox="0 0 15 15" fill="none" xmlns="http://www.w3.org/2000/svg">
<path d="M7.5 0C3.3593 0 0 3.3593 0 7.5C0 11.6407 3.3593 15 7.5 15C11.6407 15 15 11.6407 15 7.5C15 3.3593 11.6407 0 7.5 0ZM11.7105 11.0651C11.7105 11.1488 11.6756 11.2291 11.6163 11.2884C11.557 11.3477 11.4767 11.3826 11.393 11.3826H3.93488C3.85116 11.3826 3.77093 11.3477 3.71163 11.2884C3.65233 11.2291 3.61744 11.1488 3.61744 11.0651V3.60349C3.61744 3.51977 3.65233 3.43953 3.71163 3.38023C3.77093 3.32093 3.85116 3.28605 3.93488 3.28605H6.42209C6.50581 3.28605 6.58605 3.32093 6.64535 3.38023C6.70465 3.43953 6.73953 3.51977 6.73953 3.60349V5.77326H8.9093C8.99302 5.77326 9.07326 5.80814 9.13256 5.86744C9.19186 5.92674 9.22674 6.00698 9.22674 6.0907V8.26046H11.3965C11.4802 8.26046 11.5605 8.29535 11.6198 8.35116C11.6791 8.41047 11.714 8.4907 11.714 8.57442V11.0651H11.7105Z" fill="#162C3D"/>
</svg>
